<svg xmlns="http://www.w3.org/2000/svg" viewBox="0 0 615.86 507.18"><defs><style>.cls-1{fill:#754ef9;}</style></defs><g id="Capa_2" data-name="Capa 2"><g id="Capa_1-2" data-name="Capa 1"><g id="Capa_2-2" data-name="Capa 2"><g id="Capa_1-2-2" data-name="Capa 1-2"><path class="cls-1" d="M115.53,402.12H5.31L64.73,279.71H175Zm-65.5-28H98l32.23-66.41H82.31Z"/><path class="cls-1" d="M484.47,402.12H374.25L314.82,279.71H425Zm-92.69-28h48l-32.27-66.41h-48Z"/><path class="cls-1" d="M359.54,307.71H130.18L245.81,73Zm-184.35-28H314.85L245.6,136.79Z"/><path class="cls-1" d="M324.57,235.55H95.22L210.84.86Zm-184.34-28H279.89L210.64,64.64Z"/><path class="cls-1" d="M395.22,235.55H165.86L281.49.86Zm-184.35-28H350.53L281.31,64.64Z"/><path class="cls-1" d="M612.46,402.12H521V0h91.48Zm-63.48-28h35.48V28H549Z"/></g></g><path class="cls-1" d="M60.57,485.22a32.11,32.11,0,0,1-7.5,10.88,35.35,35.35,0,0,1-11.57,7.25A39.72,39.72,0,0,1,26.76,506H0V437.4H26.76A40.54,40.54,0,0,1,41.5,440a34.77,34.77,0,0,1,11.57,7.21A32.21,32.21,0,0,1,60.57,458a34.14,34.14,0,0,1,2.64,13.47v.2A34.49,34.49,0,0,1,60.57,485.22ZM47.43,471.7a22.39,22.39,0,0,0-1.51-8.33,19.63,19.63,0,0,0-4.22-6.57,18.64,18.64,0,0,0-6.52-4.26A22.61,22.61,0,0,0,26.76,451H15.09v41.36H26.76a23.23,23.23,0,0,0,8.42-1.47,18.14,18.14,0,0,0,6.52-4.22,19.8,19.8,0,0,0,4.22-6.47,21.88,21.88,0,0,0,1.51-8.33Z"/><path class="cls-1" d="M76.64,506V437.4h51.65v13.42H91.54v13.92h32.34v13.43H91.54v14.4h37.24V506Z"/><path class="cls-1" d="M177.49,506.49H164.16L136.42,437.4h16.66L171,485.71,189,437.4h16.27Z"/><path class="cls-1" d="M215.81,506V437.4h51.64v13.42H230.7v13.92H263v13.43H230.7v14.4h37.24V506Z"/><path class="cls-1" d="M281.47,506V437.4h15.09v55h34.21V506Z"/><path class="cls-1" d="M409.27,485.47a35.11,35.11,0,0,1-19.16,18.91,37.84,37.84,0,0,1-14.66,2.8,37.43,37.43,0,0,1-14.6-2.8,36.2,36.2,0,0,1-11.51-7.54,33.77,33.77,0,0,1-7.55-11.18,35.12,35.12,0,0,1-2.7-13.77v-.19a34.66,34.66,0,0,1,2.75-13.77A35.08,35.08,0,0,1,361,439a39.73,39.73,0,0,1,29.25,0,36.56,36.56,0,0,1,11.52,7.55,33.7,33.7,0,0,1,7.54,11.17A35.15,35.15,0,0,1,412,471.5v.2A34.82,34.82,0,0,1,409.27,485.47Zm-13-13.77a22.89,22.89,0,0,0-1.52-8.33,20.56,20.56,0,0,0-10.93-11.52,20.12,20.12,0,0,0-8.33-1.71,20.55,20.55,0,0,0-8.38,1.66,19.12,19.12,0,0,0-6.46,4.61,21.62,21.62,0,0,0-4.22,6.81,22.51,22.51,0,0,0-1.52,8.28v.2a22.89,22.89,0,0,0,1.52,8.33,20.63,20.63,0,0,0,10.88,11.51,19.9,19.9,0,0,0,8.38,1.72,20.66,20.66,0,0,0,8.33-1.67,19,19,0,0,0,6.52-4.6,21.78,21.78,0,0,0,4.21-6.81,22.57,22.57,0,0,0,1.52-8.29Z"/><path class="cls-1" d="M477.57,471.8a21.24,21.24,0,0,1-5.93,7.54,25.49,25.49,0,0,1-8.82,4.56A37.45,37.45,0,0,1,452,485.42H440.53V506H425.44V437.4h28a33,33,0,0,1,11,1.71,23.49,23.49,0,0,1,8.23,4.85,21.12,21.12,0,0,1,5.2,7.5,25.09,25.09,0,0,1,1.81,9.65v.2A24,24,0,0,1,477.57,471.8Zm-13.13-10.39q0-5.1-3.28-7.74t-9-2.65H440.53v21h12c3.79,0,6.73-1,8.83-3a9.81,9.81,0,0,0,3.13-7.4Z"/><path class="cls-1" d="M490.9,506V437.4h51.65v13.42H505.8v13.92h32.34v13.43H505.8v14.4H543V506Z"/><path class="cls-1" d="M598.22,506l-14.7-21.95H571.66V506H556.57V437.4h31.36q12.24,0,19.06,6T613.8,460v.19q0,8.34-4.07,13.57a23.49,23.49,0,0,1-10.63,7.7L615.86,506Zm.29-45.18q0-4.9-3.13-7.35c-2.1-1.63-5-2.45-8.73-2.45h-15v19.7H587q5.58,0,8.57-2.65a9,9,0,0,0,3-7.06Z"/></g></g></svg>