<svg xmlns="http://www.w3.org/2000/svg" viewBox="0 0 607.15 402.12"><g id="Capa_2" data-name="Capa 2"><g id="Capa_1-2" data-name="Capa 1"><path d="M110.22,402.12H0L59.42,279.71H169.64Zm-65.5-28h48l32.23-66.41H77Z"/><path d="M479.16,402.12H368.94L309.51,279.71H419.73Zm-92.69-28h48L402.2,307.71h-48Z"/><path d="M354.23,307.71H124.87L240.5,73Zm-184.35-28H309.54L240.29,136.79Z"/><path d="M319.26,235.55H89.91L205.53.86Zm-184.34-28H274.58L205.33,64.64Z"/><path d="M389.91,235.55H160.55L276.18.86Zm-184.35-28H345.22L276,64.64Z"/><path d="M607.15,402.12H515.67V0h91.48Zm-63.48-28h35.48V28H543.67Z"/></g></g></svg>